<svg width="647" height="647" viewBox="0 0 647 647" fill="none" xmlns="http://www.w3.org/2000/svg">
<g clip-path="url(#clip0_3613_7461)">
<path d="M123.12 0.5C94.19 0.5 67.41 10.66 46.17 27.59C17.85 50.06 0 84.84 0 123.62C0 191.64 55.1 246.74 123.12 246.74C154.21 246.74 182.53 235.04 204.38 215.96C229.93 193.49 246.24 160.56 246.24 123.62C246.24 55.6 191.14 0.5 123.12 0.5Z" fill="#2B2D42"/>
<path d="M430.919 62.0593V339.079C430.919 372.939 403.219 400.639 369.359 400.639H30.7793V204.259C53.2493 231.039 87.7193 247.659 125.889 246.739C156.979 246.119 184.989 234.119 205.919 214.109C215.459 206.109 223.469 195.949 229.619 184.869C240.699 166.089 246.859 143.929 246.239 120.849C245.319 84.8393 229.309 53.1393 204.379 31.2793H400.139C417.069 31.2793 430.919 45.1293 430.919 62.0593Z" fill="#095792"/>
<path d="M646.37 400.639V492.979C646.37 544.069 605.13 585.319 554.03 585.319H523.25C523.25 551.459 495.55 523.759 461.69 523.759C427.83 523.759 400.13 551.459 400.13 585.319H277.01C277.01 551.459 249.31 523.759 215.45 523.759C181.59 523.759 153.89 551.459 153.89 585.319H123.11C72.0195 585.319 30.7695 544.079 30.7695 492.979V400.639H369.36C403.22 400.639 430.92 372.939 430.92 339.079V123.619H487.55C509.71 123.619 530.03 135.619 541.11 154.709L593.74 246.739H554.03C537.1 246.739 523.25 260.589 523.25 277.519V369.859C523.25 386.789 537.1 400.639 554.03 400.639H646.37Z" fill="#B2B2BF"/>
<path d="M215.46 646.87C249.46 646.87 277.02 619.31 277.02 585.31C277.02 551.31 249.46 523.75 215.46 523.75C181.46 523.75 153.9 551.31 153.9 585.31C153.9 619.31 181.46 646.87 215.46 646.87Z" fill="#2B2D42"/>
<path d="M461.691 646.87C495.691 646.87 523.251 619.31 523.251 585.31C523.251 551.31 495.691 523.75 461.691 523.75C427.691 523.75 400.131 551.31 400.131 585.31C400.131 619.31 427.691 646.87 461.691 646.87Z" fill="#2B2D42"/>
<path d="M646.37 355.39V400.64H554.03C537.1 400.64 523.25 386.79 523.25 369.86V277.52C523.25 260.59 537.1 246.74 554.03 246.74H593.74L638.37 324.92C643.6 334.15 646.37 344.62 646.37 355.39Z" fill="#2B2D42"/>
<path d="M70.6602 127.391L103.11 159.841L175.57 87.3809" stroke="white" stroke-width="8" stroke-linecap="round" stroke-linejoin="round"/>
</g>
<defs>
<clipPath id="clip0_3613_7461">
<rect width="646.37" height="646.37" fill="white" transform="translate(0 0.5)"/>
</clipPath>
</defs>
</svg>
