<svg width="661" height="618" viewBox="0 0 661 618" fill="none" xmlns="http://www.w3.org/2000/svg">
<g clip-path="url(#clip0_3613_7448)">
<path fill-rule="evenodd" clip-rule="evenodd" d="M44.15 110.589H44.22C44.22 122.749 54.08 132.609 66.24 132.609H638.65V264.719H507.73C483.16 264.599 463.04 284.199 462.5 308.759V396.829C462.46 421.109 482.12 440.829 506.4 440.869H638.64V572.979C639.28 584.449 635.2 595.689 627.33 604.069C618.48 612.419 606.76 617.049 594.6 617.019H44.21C19.84 617.059 0.05 597.349 0 572.979V88.5693C0.05 64.2293 19.81 44.5293 44.15 44.5293V110.589Z" fill="#B2B2BF"/>
<path fill-rule="evenodd" clip-rule="evenodd" d="M528.559 396.83C517.559 394.4 508.969 385.81 506.539 374.81V330.77C508.959 319.77 517.559 311.18 528.559 308.75H638.649C649.649 311.18 658.239 319.77 660.669 330.77V374.81C658.249 385.81 649.649 394.4 638.649 396.83H528.559Z" fill="#2B2D42"/>
<path d="M554.95 0.5H127.84C105.936 0.5 88.1797 18.2564 88.1797 40.16V48.91C88.1797 70.8136 105.936 88.57 127.84 88.57H554.95C576.853 88.57 594.61 70.8136 594.61 48.91V40.16C594.61 18.2564 576.853 0.5 554.95 0.5Z" fill="#095792"/>
</g>
<defs>
<clipPath id="clip0_3613_7448">
<rect width="660.67" height="616.52" fill="white" transform="translate(0 0.5)"/>
</clipPath>
</defs>
</svg>
