<svg width="631" height="626" viewBox="0 0 631 626" fill="none" xmlns="http://www.w3.org/2000/svg">
<g clip-path="url(#clip0_3613_7454)">
<path fill-rule="evenodd" clip-rule="evenodd" d="M1.28941 17.5995C5.65941 4.49949 19.8094 -2.58051 32.9094 1.78949L41.7394 4.72949C42.1794 4.87949 42.6194 5.01949 43.0594 5.16949C63.9394 12.1295 81.5794 18.0095 95.4594 24.4595C110.209 31.3195 122.999 39.8195 132.709 53.2895C142.409 66.7495 146.429 81.5795 148.279 97.7395C150.019 112.939 150.019 131.539 150.009 153.549V242.169C150.009 290.019 150.059 323.389 153.449 348.559C156.739 373.019 162.749 385.969 171.979 395.199C181.209 404.419 194.159 410.439 218.619 413.729C243.799 417.119 277.169 417.169 325.019 417.169H558.349C572.159 417.169 583.349 428.359 583.349 442.169C583.349 455.979 572.159 467.169 558.349 467.169H323.189C277.599 467.169 240.859 467.169 211.959 463.279C181.959 459.249 156.689 450.619 136.629 430.549C116.569 410.489 107.939 385.219 103.899 355.219C100.009 326.319 100.009 289.58 100.019 243.99V154.929C100.019 131.159 99.9794 115.439 98.6094 103.399C97.3094 92.0095 95.0394 86.5095 92.1594 82.5095C89.2794 78.5095 84.7794 74.6195 74.3794 69.7795C63.3994 64.6695 48.4894 59.6595 25.9394 52.1495L17.1094 49.2095C3.99941 44.8595 -3.08059 30.6995 1.28941 17.5995Z" fill="#B2B2BF"/>
<path d="M149.84 125.51C150.01 134.15 150.01 143.5 150.01 153.56V242.18C150.01 290.03 150.06 323.4 153.45 348.58C153.94 352.25 154.5 355.67 155.12 358.85H492.4C524.38 358.85 540.37 358.85 552.89 350.59C565.41 342.33 571.71 327.63 584.31 298.24L598.6 264.91C625.58 201.95 639.07 170.47 624.25 147.99C609.43 125.51 575.18 125.51 506.68 125.51H149.84Z" fill="#095792"/>
<path d="M208.33 525.51C235.94 525.51 258.33 547.9 258.33 575.51C258.33 603.12 235.94 625.51 208.33 625.51C180.72 625.51 158.33 603.12 158.33 575.51C158.33 547.9 180.72 525.51 208.33 525.51Z" fill="#2B2D42"/>
<path d="M558.33 575.51C558.33 547.89 535.94 525.51 508.33 525.51C480.72 525.51 458.33 547.89 458.33 575.51C458.33 603.13 480.72 625.51 508.33 625.51C535.94 625.51 558.33 603.12 558.33 575.51Z" fill="#2B2D42"/>
</g>
<defs>
<clipPath id="clip0_3613_7454">
<rect width="630.37" height="625.01" fill="white" transform="translate(0 0.5)"/>
</clipPath>
</defs>
</svg>
